PathFileType	4	(X/Y/Z)	D:\TRACE\spot_10-12-23\spot_arm_body_motion_3_8-platform.trc
DataRate	CameraRate	NumFrames	NumMarkers	Units	OrigDataRate	OrigDataStartFrame	OrigNumFrames
100.00	100.00	      54	5	mm	100.00	1751	      7000
Frame#	Time	Left_Front			Right_Front			Left_Aft			Right_Aft			Post			
		X1	Y1	Z1	X2	Y2	Z2	X3	Y3	Z3	X4	Y4	Z4	X5	Y5	Z5	

1751	17.500	-772.98859	36.08972	-633.86530	799.74176	40.80757	-626.99146	-689.83667	-15.59203	502.93567	727.53613	-14.63070	589.06653	9.59017	787.15521	-918.65637	
1752	17.510	-773.44885	36.40554	-633.79138	799.40149	41.16968	-626.88391	-690.20911	-15.77957	502.97491	727.31702	-14.74673	589.12158	9.30012	787.68115	-918.19385	
1753	17.520	-773.84204	36.79017	-633.75867	799.19781	41.38343	-626.69537	-690.57037	-15.90958	503.04800	726.97711	-14.95728	589.15564	8.91658	788.08954	-917.86462	
1754	17.530	-774.18610	37.11911	-633.65765	798.91254	41.64865	-626.47455	-690.78998	-16.07510	503.17358	726.58807	-15.18965	589.21063	8.47270	788.44727	-917.45667	
1755	17.540	-774.52625	37.35943	-633.52795	798.49219	41.92307	-626.39404	-691.26538	-16.35255	503.14331	726.22583	-15.48172	589.25421	8.11764	788.77850	-917.04071	
1756	17.550	-774.74347	37.48668	-633.40057	798.09528	42.26393	-626.32166	-691.55688	-16.56096	503.19238	725.80981	-15.64101	589.35980	7.90727	789.11707	-916.73389	
1757	17.560	-775.09033	37.77343	-633.29816	797.65515	42.58154	-626.32397	-691.85553	-16.68255	503.32855	725.42542	-15.85362	589.46741	7.53266	789.61285	-916.43933	
1758	17.570	-775.44421	38.00644	-633.23511	797.31226	42.84371	-626.24127	-692.26001	-16.88885	503.43228	724.99939	-16.06961	589.51434	7.03489	790.09631	-916.04779	
1759	17.580	-775.81494	38.30705	-633.21204	796.98633	43.11377	-626.12000	-692.66010	-17.15800	503.44446	724.70502	-16.26706	589.57263	6.73334	790.47443	-915.59906	
1760	17.590	-776.23969	38.54287	-633.10358	796.59540	43.21254	-626.06366	-693.04865	-17.47292	503.48154	724.21619	-16.64814	589.61969	6.50921	790.82910	-915.37634	
1761	17.600	-776.77411	38.88772	-633.00031	796.10107	43.45928	-626.04712	-693.42706	-17.66202	503.50531	723.71155	-16.98287	589.60620	6.06312	791.21783	-914.93365	
1762	17.610	-777.21289	39.19629	-632.89734	795.64093	43.75723	-625.92255	-693.85468	-17.84938	503.49881	723.41760	-17.21331	589.63031	5.57791	791.65430	-914.35675	
1763	17.620	-777.63538	39.55035	-632.78296	795.23346	44.08453	-625.67505	-694.27911	-18.04921	503.51364	723.10614	-17.46724	589.69415	5.26526	792.13068	-913.88678	
1764	17.630	-777.95331	39.81001	-632.70752	794.98944	44.29017	-625.67450	-694.57141	-18.29563	503.91763	722.77002	-17.67160	589.78979	4.97191	792.57184	-913.49579	
1765	17.640	-778.29810	40.10202	-632.67682	794.59583	44.55538	-625.68921	-694.92969	-18.40703	503.97940	722.43665	-17.86930	589.87872	4.62790	792.90973	-912.92194	
1766	17.650	-778.54700	40.26966	-632.61310	793.98206	44.83809	-625.76971	-695.38055	-18.57616	504.05530	722.04553	-18.05223	589.88550	4.19824	793.29004	-912.43152	
1767	17.660	-778.93335	40.48756	-632.56580	793.65002	45.09076	-625.68506	-695.80084	-18.86169	504.10767	721.48212	-18.28951	589.89648	3.79922	793.74664	-911.98682	
1768	17.670	-779.40948	40.84313	-632.44214	793.19470	45.39971	-625.54144	-696.18811	-19.05189	504.10794	721.00140	-18.58947	589.96106	3.41412	794.21594	-911.55939	
1769	17.680	-779.88495	41.15200	-632.24908	792.81934	45.75607	-625.41333	-696.61871	-19.19555	504.16620	720.60980	-18.83966	589.97546	2.97955	794.62018	-911.15607	
1770	17.690	-780.33319	41.49236	-632.11530	792.38147	46.11863	-625.34009	-696.94171	-19.32587	504.27090	720.28815	-19.09658	590.06036	2.53538	794.89807	-910.81024	
1771	17.700	-780.70557	41.74940	-632.10266	792.12061	46.42430	-625.26660	-697.37622	-19.65201	504.41534	719.95477	-19.33096	590.20032	2.28088	795.11420	-910.55121	
1772	17.710	-781.06128	42.00853	-632.13165	791.81390	46.61270	-625.17322	-697.75842	-19.90095	504.45630	719.63428	-19.56373	590.30389	1.77999	795.48938	-910.14954	
1773	17.720	-781.46771	42.27032	-632.01508	791.39728	46.83943	-625.12103	-698.01978	-20.32730	504.48935	719.27722	-19.76184	590.32202	1.34755	795.94641	-909.81006	
1774	17.730	-781.85486	42.49247	-631.98077	791.04584	47.05724	-625.00391	-698.43268	-20.19483	504.34302	718.80225	-19.98560	590.27850	1.09388	796.43634	-909.54248	
1775	17.740	-782.30280	42.77350	-631.89850	790.49133	47.26572	-624.83130	-698.81354	-20.51445	504.47839	718.29053	-20.22534	590.24744	0.73895	796.90509	-909.21155	
1776	17.750	-782.68640	43.06978	-631.84723	789.89966	47.52530	-624.96100	-699.44763	-20.55063	504.32800	717.88007	-20.39221	590.28259	0.16230	797.25928	-908.75934	
1777	17.760	-783.02960	43.29727	-631.78876	789.44330	47.67905	-624.97546	-699.79034	-20.67944	504.42694	717.54254	-20.57382	590.40930	-0.18151	797.45532	-908.39014	
1778	17.770	-783.36566	43.52877	-631.65222	789.19537	47.82778	-624.79425	-700.25854	-20.73168	504.53806	717.21143	-20.69337	590.49530	-0.65177	797.82294	-908.02142	
1779	17.780	-783.75775	43.77473	-631.56427	788.87836	47.98364	-624.72223	-700.66718	-20.90924	504.50507	716.85767	-20.83483	590.59613	-0.86192	798.02948	-907.69714	
1780	17.790	-784.19635	44.02054	-631.51575	788.46301	48.16478	-624.54529	-700.96075	-21.02866	504.56812	716.40857	-21.10153	590.65875	-1.25879	798.35693	-907.46771	
1781	17.800	-784.70148	44.28778	-631.44196	788.12305	48.37727	-624.33075	-701.42761	-21.13834	504.57901	716.00238	-21.35229	590.67615	-1.88627	798.74677	-907.09668	
1782	17.810	-785.18689	44.62043	-631.47290	787.58923	48.66716	-624.30963	-701.84674	-21.25370	504.67752	715.67072	-21.55091	590.73492	-2.43372	799.02942	-906.77429	
1783	17.820	-785.45300	44.83316	-631.43860	787.12122	49.14032	-624.37891	-702.15247	-21.47052	504.75208	715.19739	-21.74959	590.77026	-2.74324	799.15680	-906.65381	
1784	17.830	-785.80408	44.90411	-631.37494	786.91602	49.07641	-624.31665	-702.61786	-21.56618	504.79138	714.70673	-21.85223	590.84283	-3.21534	799.40228	-906.40033	
1785	17.840	-786.24103	44.94144	-631.24170	786.54993	49.06779	-624.17029	-703.02716	-21.63835	504.76288	714.29358	-22.02400	590.85260	-3.63901	799.66364	-906.17255	
1786	17.850	-786.53644	45.02698	-631.22589	786.12604	49.41318	-624.16968	-703.42755	-21.72901	504.68631	713.97723	-22.04323	590.91162	-3.97642	799.83527	-905.90295	
1787	17.860	-786.98193	45.37720	-631.15845	785.85034	49.67166	-624.08197	-703.76801	-21.84920	504.71628	713.71045	-22.18987	590.91998	-4.14489	800.15076	-905.56775	
1788	17.870	-787.44733	45.48876	-631.11517	785.39215	49.61838	-624.02509	-704.10022	-21.92194	504.80048	713.37317	-22.38944	590.90405	-4.51636	800.48175	-905.36011	
1789	17.880	-787.74701	45.65264	-631.04950	784.85706	49.62164	-624.02826	-704.59631	-22.02722	504.87000	713.08661	-22.44256	590.99854	-5.24179	800.66553	-905.34076	
1790	17.890	-788.12433	45.85191	-631.07037	784.49615	50.05474	-624.11359	-704.98932	-22.12987	504.84897	712.71643	-22.58032	591.05884	-5.56370	800.81567	-905.10596	
1791	17.900	-788.50739	45.86216	-631.10797	783.98297	50.16556	-624.35876	-705.27643	-22.21626	504.98944	712.18359	-22.76314	591.10638	-6.03955	800.92963	-904.92206	
1792	17.910	-788.88116	46.01326	-631.05231	783.57709	50.07482	-624.31830	-705.49646	-22.34256	504.96780	711.64948	-22.86650	591.14307	-6.45808	801.07581	-904.71777	
1793	17.920	-789.21063	46.17073	-630.96472	783.26349	50.09383	-624.24518	-705.88678	-22.46787	505.01340	711.30768	-22.96278	591.14081	-6.74681	801.18311	-904.58209	
1794	17.930	-789.62115	46.33642	-630.89539	782.96631	50.34563	-624.28772	-706.22192	-22.50996	505.11130	711.09735	-23.06089	591.13287	-6.95991	801.28888	-904.45532	
1795	17.940	-790.06500	46.20838	-630.85925	782.61835	50.41592	-624.10785	-706.55768	-22.51593	505.10193	710.76422	-22.94025	591.11145	-7.16714	801.34442	-904.33136	
1796	17.950	-790.29858	46.18162	-630.81158	782.34320	50.32501	-624.00208	-706.98206	-22.62333	505.05765	710.45270	-23.05367	591.06854	-7.41602	801.32654	-904.22278	
1797	17.960	-790.46973	46.15309	-630.80756	782.10931	50.35180	-623.94128	-707.38647	-22.63259	505.03610	710.20142	-23.03520	591.07172	-7.64059	801.34027	-904.13324	
1798	17.970	-790.83600	46.16584	-630.73077	781.92450	50.43016	-623.93146	-707.73956	-22.62486	505.04202	709.87964	-23.00307	591.06110	-7.84661	801.27679	-904.09967	
1799	17.980	-791.21466	46.20005	-630.70959	781.45172	50.51880	-623.91608	-707.96405	-22.56353	505.06116	709.49158	-23.01944	591.08057	-8.31895	801.34406	-903.98871	
1800	17.990	-791.58313	46.28912	-630.86932	781.12805	50.49836	-623.89148	-708.14172	-22.57563	505.06561	709.15100	-23.05526	591.04901	-8.69474	801.31415	-904.16809	
1801	18.000	-791.90723	46.29240	-630.82269	780.90582	50.47263	-623.93451	-708.43127	-22.60949	505.06433	708.76044	-23.03107	591.07245	-9.13647	801.48895	-904.22174	
1802	18.010	-792.16595	46.32353	-630.92981	780.65009	50.46898	-623.96619	-708.76288	-22.73068	504.99557	708.48596	-23.07015	591.04065	-9.56218	801.33228	-904.44806	
1803	18.020	-792.49176	46.36153	-630.93170	780.31818	50.40342	-623.94611	-709.18927	-22.74599	504.94504	708.22272	-23.05958	591.08374	-9.87616	801.29321	-904.51837	
1804	18.030	-792.81873	46.32726	-630.96759	780.11298	50.32398	-623.99890	-709.44714	-22.73982	504.94156	708.00269	-23.05363	591.11932	-10.05064	801.27881	-904.61664	
